<svg xmlns="http://www.w3.org/2000/svg" width="1200" height="720" viewBox="0 0 1200 720">
  <rect width="1200" height="720" fill="#f3f4f6"/>
  <rect x="0" y="0" width="1200" height="28" fill="#ffffff" stroke="#cbd5e1"/>
  <text x="12" y="19" font-family="Segoe UI" font-size="13">File</text>
  <text x="58" y="19" font-family="Segoe UI" font-size="13">Window</text>
  <rect x="0" y="28" width="1200" height="30" fill="#f8fafc" stroke="#cbd5e1"/>
  <text x="12" y="48" font-family="Segoe UI" font-size="13">Dashboard</text>
  <rect x="18" y="82" width="1164" height="610" fill="#ffffff" stroke="#94a3b8"/>
  <rect x="18" y="82" width="1164" height="28" fill="#dbeafe" stroke="#94a3b8"/>
  <text x="30" y="101" font-family="Segoe UI" font-size="13" font-weight="600">Policy Dashboard - Baireni Land Pooling Contribution and Return Policy</text>
  <rect x="30" y="124" width="340" height="520" fill="#ffffff" stroke="#94a3b8"/>
  <rect x="30" y="124" width="340" height="26" fill="#e2e8f0"/>
  <text x="42" y="142" font-family="Segoe UI" font-size="12">Code</text>
  <text x="100" y="142" font-family="Segoe UI" font-size="12">Section</text>
  <text x="205" y="142" font-family="Segoe UI" font-size="12">Heading</text>
  <rect x="42" y="162" width="312" height="26" fill="#bfdbfe"/>
  <text x="48" y="180" font-family="Segoe UI" font-size="12">2.2.1   Contribution Policy   Contribution for infrastructure</text>
  <rect x="388" y="124" width="410" height="250" fill="#ffffff" stroke="#94a3b8"/>
  <text x="404" y="150" font-family="Segoe UI" font-size="12">Policy Code</text>
  <rect x="500" y="132" width="120" height="24" fill="#ffffff" stroke="#94a3b8"/>
  <text x="404" y="190" font-family="Segoe UI" font-size="12">Clause Description</text>
  <rect x="500" y="174" width="270" height="118" fill="#ffffff" stroke="#94a3b8"/>
  <rect x="812" y="124" width="352" height="250" fill="#ffffff" stroke="#94a3b8"/>
  <text x="830" y="150" font-family="Segoe UI" font-size="12">Implementation Picture Box</text>
  <rect x="842" y="170" width="284" height="160" fill="#f8fafc" stroke="#cbd5e1" stroke-dasharray="6 4"/>
  <rect x="388" y="394" width="776" height="250" fill="#ffffff" stroke="#94a3b8"/>
  <rect x="388" y="394" width="776" height="28" fill="#e2e8f0"/>
  <text x="404" y="413" font-family="Segoe UI" font-size="12">Parameters | Lookup Tables | Audit | Validation</text>
  <rect x="410" y="438" width="720" height="118" fill="#ffffff" stroke="#94a3b8"/>
</svg>
