<svg xmlns="http://www.w3.org/2000/svg" width="980" height="480" viewBox="0 0 980 480">
  <rect width="980" height="480" fill="#f3f4f6"/>
  <rect x="24" y="28" width="928" height="410" fill="#ffffff" stroke="#94a3b8"/>
  <text x="42" y="58" font-family="Segoe UI" font-size="15" font-weight="600">Clause / Sub-Clause Editor</text>
  <text x="42" y="96" font-family="Segoe UI" font-size="12">Policy Code</text>
  <rect x="140" y="78" width="140" height="24" fill="#ffffff" stroke="#94a3b8"/>
  <text x="320" y="96" font-family="Segoe UI" font-size="12">Policy Name</text>
  <rect x="430" y="78" width="420" height="24" fill="#ffffff" stroke="#94a3b8"/>
  <text x="42" y="134" font-family="Segoe UI" font-size="12">Clause Code</text>
  <rect x="140" y="116" width="140" height="24" fill="#ffffff" stroke="#94a3b8"/>
  <text x="320" y="134" font-family="Segoe UI" font-size="12">Section</text>
  <rect x="430" y="116" width="220" height="24" fill="#ffffff" stroke="#94a3b8"/>
  <text x="42" y="172" font-family="Segoe UI" font-size="12">Heading</text>
  <rect x="140" y="154" width="710" height="24" fill="#ffffff" stroke="#94a3b8"/>
  <text x="42" y="210" font-family="Segoe UI" font-size="12">Description</text>
  <rect x="140" y="192" width="710" height="150" fill="#ffffff" stroke="#94a3b8"/>
  <rect x="140" y="362" width="88" height="28" fill="#f8fafc" stroke="#94a3b8"/>
  <text x="158" y="381" font-family="Segoe UI" font-size="12">Add Clause</text>
  <rect x="240" y="362" width="112" height="28" fill="#f8fafc" stroke="#94a3b8"/>
  <text x="256" y="381" font-family="Segoe UI" font-size="12">Add Sub-Clause</text>
  <rect x="364" y="362" width="86" height="28" fill="#f8fafc" stroke="#94a3b8"/>
  <text x="382" y="381" font-family="Segoe UI" font-size="12">Duplicate</text>
  <rect x="462" y="362" width="68" height="28" fill="#f8fafc" stroke="#94a3b8"/>
  <text x="480" y="381" font-family="Segoe UI" font-size="12">Delete</text>
</svg>
