<svg xmlns="http://www.w3.org/2000/svg" width="1000" height="420" viewBox="0 0 1000 420">
  <rect width="1000" height="420" fill="#f3f4f6"/>
  <text x="24" y="28" font-family="Segoe UI" font-size="15" font-weight="600">Schedule 1 Table 1 - Road Contribution</text>
  <rect x="24" y="52" width="948" height="314" fill="#ffffff" stroke="#94a3b8"/>
  <rect x="24" y="52" width="948" height="30" fill="#e2e8f0"/>
  <text x="40" y="72" font-family="Segoe UI" font-size="12">Existing Road</text>
  <text x="170" y="72" font-family="Segoe UI" font-size="12">Block Depth</text>
  <text x="300" y="72" font-family="Segoe UI" font-size="12">4 m</text>
  <text x="410" y="72" font-family="Segoe UI" font-size="12">6 m</text>
  <text x="520" y="72" font-family="Segoe UI" font-size="12">7 m</text>
  <text x="630" y="72" font-family="Segoe UI" font-size="12">8 m</text>
  <text x="740" y="72" font-family="Segoe UI" font-size="12">9.14 m</text>
  <rect x="24" y="82" width="948" height="28" fill="#bfdbfe"/>
  <text x="40" y="101" font-family="Segoe UI" font-size="12">0</text>
  <text x="170" y="101" font-family="Segoe UI" font-size="12">27</text>
  <text x="300" y="101" font-family="Segoe UI" font-size="12">23.73</text>
  <text x="410" y="101" font-family="Segoe UI" font-size="12">29.01</text>
  <text x="520" y="101" font-family="Segoe UI" font-size="12">31.42</text>
  <text x="630" y="101" font-family="Segoe UI" font-size="12">33.69</text>
  <text x="740" y="101" font-family="Segoe UI" font-size="12">36.12</text>
  <text x="40" y="134" font-family="Segoe UI" font-size="12">4</text>
  <text x="170" y="134" font-family="Segoe UI" font-size="12">27</text>
  <text x="300" y="134" font-family="Segoe UI" font-size="12">10.83</text>
  <text x="410" y="134" font-family="Segoe UI" font-size="12">17.73</text>
  <text x="520" y="134" font-family="Segoe UI" font-size="12">20.83</text>
  <text x="630" y="134" font-family="Segoe UI" font-size="12">23.73</text>
  <text x="740" y="134" font-family="Segoe UI" font-size="12">26.82</text>
</svg>
